<svg xmlns="http://www.w3.org/2000/svg" xmlns:xlink="http://www.w3.org/1999/xlink" width="500" zoomAndPan="magnify" viewBox="0 0 375 374.999991" height="500" preserveAspectRatio="xMidYMid meet" version="1.0"><path fill="#000000" d="M 0.183594 93.8125 C 62.621094 77.179688 125.0625 77.179688 187.5 93.8125 C 249.9375 110.441406 312.378906 110.441406 374.816406 93.8125 L 374.816406 162.417969 C 312.378906 179.046875 249.9375 179.046875 187.5 162.417969 C 125.0625 145.785156 62.621094 145.785156 0.183594 162.417969 Z M 0.183594 93.8125 " fill-opacity="1" fill-rule="nonzero"/><path fill="#ff0000" d="M 0.183594 156.179688 C 62.621094 139.546875 125.0625 139.546875 187.5 156.179688 C 249.9375 172.8125 312.378906 172.8125 374.816406 156.179688 L 374.816406 224.785156 C 312.378906 241.417969 249.9375 241.417969 187.5 224.785156 C 125.0625 208.152344 62.621094 208.152344 0.183594 224.785156 Z M 0.183594 156.179688 " fill-opacity="1" fill-rule="nonzero"/><path fill="#ffcc00" d="M 0.183594 218.546875 C 62.621094 201.917969 125.0625 201.917969 187.5 218.546875 C 249.9375 235.179688 312.378906 235.179688 374.816406 218.546875 L 374.816406 280.917969 C 312.378906 297.546875 249.9375 297.546875 187.5 280.917969 C 125.0625 264.285156 62.621094 264.285156 0.183594 280.917969 Z M 0.183594 218.546875 " fill-opacity="1" fill-rule="nonzero"/></svg>